PathFileType	4	(X/Y/Z)	Kaydara																																																																																																																									
DataRate	CameraRate	NumFrames	NumMarkers	Units	OrigDataRate	OrigDataStartFrame	OrigNumFrames																																																																																																																					
30	30	6	41	mm	30	130	258																																																																																																																					
Frame#	Time	SALE_LFHD			SALE_RFHD			SALE_LBHD			SALE_RBHD			SALE_LFTShould			SALE_RFTShould			SALE_LRRShould			SALE_RRRShould			SALE_T10			SALE_STRN			SALE_TRUN			SALE_LSHO			SALE_LUPA			SALE_LELB			SALE_LFRM			SALE_LWRA			SALE_LWRB			SALE_LFIN			SALE_RSHO			SALE_RUPA			SALE_RELB			SALE_RFRM			SALE_RWRB			SALE_RFIN			SALE_LFWT			SALE_RFWT			SALE_LBWT			SALE_RBWT			SALE_LTHI			SALE_LKNE			SALE_RWRA			SALE_LSHN			SALE_LANK			SALE_LHEE			SALE_LTOE			SALE_RTHI			SALE_RKNE			SALE_RSHN			SALE_RANK			SALE_RHEE			SALE_RTOE		
		X1	Y1	Z1	X2	Y2	Z2	X3	Y3	Z3	X4	Y4	Z4	X5	Y5	Z5	X6	Y6	Z6	X7	Y7	Z7	X8	Y8	Z8	X9	Y9	Z9	X10	Y10	Z10	X11	Y11	Z11	X12	Y12	Z12	X13	Y13	Z13	X14	Y14	Z14	X15	Y15	Z15	X16	Y16	Z16	X17	Y17	Z17	X18	Y18	Z18	X19	Y19	Z19	X20	Y20	Z20	X21	Y21	Z21	X22	Y22	Z22	X23	Y23	Z23	X24	Y24	Z24	X25	Y25	Z25	X26	Y26	Z26	X27	Y27	Z27	X28	Y28	Z28	X29	Y29	Z29	X30	Y30	Z30	X31	Y31	Z31	X32	Y32	Z32	X33	Y33	Z33	X34	Y34	Z34	X35	Y35	Z35	X36	Y36	Z36	X37	Y37	Z37	X38	Y38	Z38	X39	Y39	Z39	X40	Y40	Z40	X41	Y41	Z41
																																																																																																																												
130	4.31	201.34304	1607.11655	-754.17137	70.7479	1609.05899	-743.22006	185.74049	1599.02817	-885.24361	60.91349	1600.68314	-868.7989	204.68466	1346.54572	-809.03038	65.03081	1340.24185	-793.01201	183.77066	1413.64136	-914.31503	35.42065	1413.51471	-889.14108	102.58576	1268.2457	-987.84225	137.11531	1267.43019	-761.64429	141.13431	1177.60094	-730.24765	310.25684	1381.26709	-888.0349	348.97102	1170.30861	-934.80415	328.98495	1062.72072	-963.07571	362.88216	955.02319	-948.5305	313.30313	810.43716	-881.90788	370.3455	807.20474	-935.73265	375.70526	760.67383	-890.73746	-50.15472	1373.32489	-837.61276	-91.29659	1140.56358	-886.97693	-111.67707	1043.3989	-829.84314	-101.0391	928.63113	-821.43204	-103.49541	802.33322	-748.13011	-101.73567	775.51834	-686.09291	258.69909	938.45802	-816.27396	-18.07996	939.52415	-820.25948	206.8557	997.35054	-986.05621	27.31689	1011.00464	-985.61493	254.49099	616.68751	-877.72812	230.40239	493.44158	-727.47688	-50.13378	826.50558	-701.77383	225.06607	307.08847	-661.32721	225.63625	117.68	-644.01093	195.24382	51.89558	-693.7101	181.66065	106.55481	-504.96788	-14.33657	709.00566	-1013.48465	14.43286	539.37592	-940.73715	83.25687	356.40995	-993.58917	60.91077	117.44865	-1096.88271	80.83796	63.77798	-981.69189	110.58578	66.26436	-1171.83777
131	4.343	202.82749	1602.05765	-727.72507	72.23586	1604.86313	-717.59972	188.00274	1591.85608	-858.81989	63.09126	1594.30878	-843.02086	205.47693	1340.07629	-778.45978	65.77586	1334.45084	-764.40407	186.59658	1407.23038	-884.32846	37.5763	1407.72156	-861.20705	105.96143	1261.93062	-958.65524	136.83628	1261.26457	-731.82655	139.84096	1171.49605	-700.15175	312.50069	1374.34921	-855.87448	351.70166	1162.73453	-899.86717	332.43679	1054.81979	-927.25365	366.44619	947.6088	-912.01897	316.16516	802.98729	-845.60188	374.17973	799.92867	-898.601	378.90823	753.3905	-853.54919	-48.89452	1367.48734	-810.70366	-89.54767	1134.48257	-860.45151	-109.75632	1037.26898	-802.89322	-98.38128	922.56256	-792.95631	-99.49806	797.41417	-717.83897	-96.81623	771.49307	-655.26878	257.32752	931.07216	-783.65952	-19.30104	934.67224	-792.024	208.97322	991.09291	-954.08112	29.16378	1006.44035	-956.19293	252.76152	610.10452	-850.21828	232.32948	483.46107	-703.45695	-45.88959	822.72408	-672.36008	225.58413	305.00359	-628.12511	215.12157	118.01496	-594.20368	174.15388	48.79896	-634.21177	183.21039	123.82786	-451.44703	-13.88704	709.16756	-990.47951	13.23258	537.36603	-923.41286	82.59648	355.44918	-981.93985	60.28965	120.42007	-1095.26939	80.23315	63.61025	-981.19514	110.77781	71.19158	-1170.82413
132	4.377	204.92729	1597.37747	-700.82893	74.55221	1600.91995	-691.52061	191.14868	1585.38513	-831.79077	66.18685	1588.49045	-816.89888	206.86129	1334.14963	-747.49397	67.11894	1329.14261	-735.27527	190.25478	1401.2114	-853.955	40.81892	1402.57523	-832.64175	109.80869	1256.10268	-928.80524	137.38824	1255.61058	-701.45737	139.13769	1165.91949	-669.4503	315.63498	1367.46826	-823.26973	355.12398	1154.8703	-863.38867	336.45748	1046.53267	-889.71016	370.19669	939.94461	-873.86307	319.20958	795.42984	-807.76566	377.95395	792.37335	-860.10941	382.23	746.01059	-814.91516	-46.50832	1362.34436	-782.9512	-86.8754	1129.26521	-833.92578	-107.61883	1032.02347	-776.51375	-96.11643	917.31003	-765.88692	-96.5744	792.43149	-690.28427	-93.52514	766.82175	-627.62054	257.11941	925.22423	-749.58923	-19.43137	930.32318	-761.09123	211.008	984.87381	-920.69847	31.29659	1001.0627	-925.16777	250.29142	604.41956	-816.51222	230.03242	476.97983	-672.58842	-42.81563	818.17398	-645.12459	222.66899	296.32387	-600.05711	210.5533	108.96179	-569.3948	169.86448	41.32915	-609.61281	183.71159	113.95229	-426.5139	-12.83578	708.34549	-963.88367	13.09804	535.00175	-901.77864	82.43633	354.11945	-967.58942	58.93771	124.35044	-1091.5094	79.49547	63.42298	-980.2784	109.20739	77.69482	-1169.30206
133	4.41	207.99088	1594.96185	-673.34579	77.2914	1598.87924	-665.11192	195.17063	1580.82962	-804.39102	70.03612	1584.46747	-790.47035	209.51174	1329.67377	-716.32355	69.48961	1325.74234	-705.49576	195.14559	1396.71356	-823.94417	44.71903	1399.6756	-804.32396	114.1104	1251.88766	-898.57071	138.66369	1252.09999	-670.58899	139.40007	1162.69203	-637.89101	319.63053	1361.78909	-791.09146	358.91052	1147.86156	-826.12259	340.45864	1039.10095	-850.84068	373.83018	933.13316	-834.39606	322.23038	788.98788	-768.40797	381.60744	785.91049	-819.98627	385.43377	739.61357	-774.79591	-43.48735	1359.3837	-755.16037	-83.84755	1126.19675	-806.9371	-105.38817	1028.8131	-749.98955	-94.30688	913.96927	-740.15427	-95.30946	788.4314	-665.87517	-92.16768	762.28661	-603.42999	256.83905	920.97458	-712.69028	-19.90748	926.37436	-727.56577	213.53323	980.32883	-885.77133	31.76197	995.9803	-892.23549	246.51674	602.18891	-779.69345	226.52607	472.71034	-642.07474	-41.43063	813.59329	-620.58857	217.54265	290.83094	-575.04356	205.37083	105.00381	-548.92986	163.28699	49.47629	-598.06721	185.17605	87.92042	-408.92235	-10.24479	707.14203	-933.82477	14.25555	532.854	-876.33659	82.72005	353.16063	-950.16861	56.93882	130.01918	-1085.82542	78.5494	63.17683	-978.57658	106.01515	87.37504	-1166.42212
134	4.443	211.53385	1598.93692	-644.91684	80.71289	1602.7681	-638.21815	199.99487	1582.80609	-775.85274	74.69211	1586.56281	-763.32703	212.15469	1330.327	-684.39835	71.75309	1328.18695	-674.1449	199.78603	1398.16696	-791.86806	48.48807	1402.87033	-773.13644	117.45735	1253.84056	-866.37909	140.35728	1253.4375	-638.59436	139.78796	1164.11392	-605.63	323.80993	1360.63187	-758.01933	362.29008	1145.1062	-788.18863	344.39804	1035.55779	-810.00374	376.99715	930.47791	-793.32741	324.36199	786.56982	-727.75208	384.43527	783.46008	-778.72353	387.94918	737.52571	-733.5228	-40.40075	1361.76743	-725.17654	-80.28911	1127.95273	-779.40002	-102.70981	1030.71426	-723.33992	-92.74356	915.93384	-715.90363	-95.22618	788.11066	-645.96596	-92.67787	760.53871	-584.20628	255.98413	926.80954	-675.65575	-21.26171	925.5056	-692.69043	213.41299	984.6283	-849.39407	30.97438	994.4487	-857.78313	252.25695	608.90842	-751.30547	227.0505	475.09747	-614.43836	-41.01256	811.22833	-599.78931	214.68019	289.40411	-553.49503	204.31767	101.67007	-537.58869	165.12964	52.97822	-591.64005	170.27386	71.56349	-393.93562	-6.60823	706.84135	-899.91852	16.62087	532.39422	-845.6501	83.43191	353.46935	-928.63098	53.23093	139.03143	-1076.91406	77.18714	62.83779	-975.36095	100.59394	101.86911	-1160.81322
135	4.477	215.24818	1606.01486	-616.35857	84.60184	1610.81039	-611.03466	205.14427	1588.02292	-747.0388	79.74893	1592.62207	-735.93155	214.85142	1336.58493	-652.52823	74.88129	1336.37863	-642.1579	203.62173	1403.58154	-760.61974	52.51083	1410.34027	-741.90598	119.1394	1259.83459	-834.36089	142.21177	1261.13098	-606.17344	140.44721	1172.33932	-571.98742	326.87809	1365.01602	-725.85388	364.74819	1148.98582	-749.85687	346.84357	1039.10431	-769.27017	379.30012	934.72809	-750.94643	326.16695	791.06949	-685.23796	387.02877	787.81952	-735.59074	389.711	741.73271	-690.36484	-37.01166	1371.32401	-693.52913	-76.70911	1138.77342	-750.34546	-99.77759	1040.85266	-696.21796	-91.49189	925.71152	-693.16383	-96.32719	794.37996	-630.16674	-94.46823	763.69392	-569.81579	256.14956	939.25194	-639.07928	-20.25452	926.68137	-656.32713	211.20264	993.69431	-813.71811	29.48233	996.55746	-822.86804	262.12927	620.83134	-717.82928	228.13847	481.64261	-592.80144	-41.59215	813.94852	-582.86583	215.5537	291.46166	-541.02901	205.75483	102.72527	-534.61651	167.28012	53.0376	-591.0585	170.52874	70.67643	-395.04452	-2.41016	707.06535	-863.17787	20.01712	531.93417	-807.82776	83.97634	353.36498	-900.47684	46.51159	150.8682	-1063.65402	74.68887	61.38434	-971.6069	91.01392	121.1808	-1151.13716
